<svg xmlns="http://www.w3.org/2000/svg" viewBox="0 0 50 50"><defs/><g fill="none" fill-rule="evenodd"><circle class="circle" stroke="#FFF" stroke-width="2" fill="#CE0000" cx="25" cy="25" r="24"/><path d="M35.152 19.939l-1.02 1.02c-.375.375-.964.394-1.316.043l-3.818-3.818c-.351-.352-.332-.94.043-1.316l1.02-1.02C23.187 9 17.189 7.355 18.188 6.356c1.037-1.036 11.05 1.545 16.8 6.11l.08-.08c.376-.375.965-.395 1.316-.043l1.273 1.273c.352.351.332.94-.043 1.315l-.08.08c4.565 5.75 7.146 15.764 6.11 16.801-.999.999-2.644-5-8.492-11.873zm-6.263-.95l2.121 2.122a1 1 0 010 1.414L16.515 37.021a2.5 2.5 0 11-3.536-3.536L27.475 18.99a1 1 0 011.414 0z" fill="#FFF"/></g></svg>